<?xml version="1.0" standalone="no"?>
<!DOCTYPE svg PUBLIC "-//W3C//DTD SVG 20010904//EN"
 "http://www.w3.org/TR/2001/REC-SVG-20010904/DTD/svg10.dtd">
<svg version="1.0" xmlns="http://www.w3.org/2000/svg"
 width="200.000000pt" height="200.000000pt" viewBox="0 0 200.000000 200.000000"
 preserveAspectRatio="xMidYMid meet">
<metadata>
Created by potrace 1.15, written by Peter Selinger 2001-2017
</metadata>
<g transform="translate(0.000000,200.000000) scale(0.100000,-0.100000)"
fill="#000000" stroke="none">
<path d="M1175 1876 c-9 -14 -22 -54 -28 -90 -14 -80 1 -185 32 -227 12 -16
21 -34 21 -41 0 -18 -169 -38 -322 -38 l-118 0 0 -60 0 -60 39 0 38 0 -30
-125 c-34 -136 -33 -142 24 -151 l34 -5 60 133 c69 152 53 142 195 119 41 -7
89 -15 107 -17 50 -7 91 -48 108 -109 13 -45 15 -118 13 -472 -3 -381 -5 -421
-21 -446 -9 -15 -60 -59 -112 -98 -147 -111 -150 -109 175 -109 232 0 270 2
270 15 0 8 -25 47 -55 86 -30 39 -58 82 -61 95 -4 14 8 197 25 407 33 407 39
594 19 661 -16 52 -90 127 -143 144 -22 7 -77 16 -122 19 -88 6 -99 15 -63 48
43 39 52 223 14 301 -15 32 -25 40 -51 42 -25 3 -35 -2 -48 -22z m270 -446
c29 -14 56 -38 73 -63 25 -37 27 -50 30 -160 3 -77 -8 -262 -29 -512 -17 -216
-29 -408 -25 -427 3 -19 24 -59 47 -89 l40 -54 -90 -3 c-50 -1 -132 -1 -183 0
l-91 3 66 50 c36 28 76 68 89 90 l23 40 0 450 0 450 -27 57 c-18 40 -38 65
-67 84 -38 25 -41 30 -41 72 l0 45 69 -5 c42 -3 87 -14 116 -28z m-285 -21 c0
-34 -3 -40 -17 -35 -55 16 -146 28 -168 22 -21 -5 -33 -22 -56 -71 -31 -70
-56 -88 -43 -32 5 17 8 48 9 67 0 34 -1 35 -42 38 -35 3 -43 7 -43 22 0 18 10
20 163 23 89 1 170 4 180 5 14 2 17 -6 17 -39z"/>
<path d="M816 1799 c-29 -23 -29 -23 -22 -108 9 -133 9 -132 70 -129 l51 3 11
65 c7 36 12 81 13 101 2 72 -68 111 -123 68z"/>
<path d="M360 100 c0 -20 7 -20 350 -20 343 0 350 0 350 20 0 20 -7 20 -350
20 -343 0 -350 0 -350 -20z"/>
</g>
</svg>
